<svg width="128" height="128" viewBox="0 0 128 128" fill="none" xmlns="http://www.w3.org/2000/svg">
<rect width="128" height="128" fill="#F2FFFB"/>
<path d="M64.6621 86.864C61.9741 86.864 59.5501 86.408 57.3901 85.496C55.2781 84.584 53.4541 83.288 51.9181 81.608C50.4301 79.88 49.2781 77.84 48.4621 75.488C47.6461 73.088 47.2381 70.424 47.2381 67.496C47.2381 64.52 47.6461 61.832 48.4621 59.432C49.3261 57.032 50.5021 54.992 51.9901 53.312C53.4781 51.584 55.2541 50.264 57.3181 49.352C59.4301 48.44 61.7581 47.984 64.3021 47.984C66.7981 47.984 69.0541 48.44 71.0701 49.352C73.1341 50.264 74.8861 51.536 76.3261 53.168C77.7661 54.752 78.8701 56.648 79.6381 58.856C80.4061 61.064 80.7901 63.488 80.7901 66.128V68.864H53.2861V70.592C53.2861 72.224 53.5501 73.736 54.0781 75.128C54.6061 76.52 55.3501 77.72 56.3101 78.728C57.3181 79.736 58.5181 80.528 59.9101 81.104C61.3501 81.632 62.9341 81.896 64.6621 81.896C67.1581 81.896 69.3181 81.32 71.1421 80.168C72.9661 79.016 74.3581 77.432 75.3181 75.416L79.5661 78.296C78.4621 80.792 76.6141 82.856 74.0221 84.488C71.4781 86.072 68.3581 86.864 64.6621 86.864ZM64.3021 52.736C62.7181 52.736 61.2541 53.024 59.9101 53.6C58.5661 54.176 57.3901 54.968 56.3821 55.976C55.4221 56.984 54.6541 58.184 54.0781 59.576C53.5501 60.92 53.2861 62.408 53.2861 64.04V64.544H74.5981V63.752C74.5981 62.12 74.3341 60.632 73.8061 59.288C73.3261 57.944 72.6301 56.792 71.7181 55.832C70.8541 54.824 69.7741 54.056 68.4781 53.528C67.2301 53 65.8381 52.736 64.3021 52.736Z" fill="black"/>
<path d="M25.5356 100.04C23.2956 100.04 21.6156 99.4 20.4956 98.12C19.3756 96.8933 18.8156 95.3467 18.8156 93.48V88.44C18.8156 87 18.949 85.7467 19.2156 84.68C19.5356 83.6133 19.909 82.6533 20.3356 81.8C20.7623 80.9467 21.2423 80.2 21.7756 79.56C22.309 78.8667 22.8156 78.2267 23.2956 77.64C24.2023 76.5733 24.8156 75.6667 25.1356 74.92C25.509 74.12 25.6956 73.2933 25.6956 72.44C25.6956 70.4133 24.7623 68.9467 22.8956 68.04C21.029 67.08 18.2823 66.6 14.6556 66.6H8.41563V61.64H14.6556C18.2823 61.64 21.029 61.1867 22.8956 60.28C24.7623 59.32 25.6956 57.8267 25.6956 55.8C25.6956 54.9467 25.509 54.1467 25.1356 53.4C24.8156 52.6 24.2023 51.6667 23.2956 50.6C22.8156 50.0133 22.309 49.4 21.7756 48.76C21.2423 48.0667 20.7623 47.32 20.3356 46.52C19.909 45.6667 19.5356 44.7067 19.2156 43.64C18.949 42.52 18.8156 41.24 18.8156 39.8V34.76C18.8156 32.8933 19.3756 31.3467 20.4956 30.12C21.6156 28.84 23.2956 28.2 25.5356 28.2H39.6156V33.16H24.3356V39.32C24.3356 41.5067 24.6556 43.1867 25.2956 44.36C25.9356 45.5333 26.6823 46.68 27.5356 47.8C28.4423 48.9733 29.2956 50.2 30.0956 51.48C30.8956 52.7067 31.2956 54.1733 31.2956 55.88C31.2956 58.12 30.4956 59.9333 28.8956 61.32C27.349 62.7067 25.2156 63.5867 22.4956 63.96V64.28C25.2156 64.6533 27.349 65.5333 28.8956 66.92C30.4956 68.3067 31.2956 70.12 31.2956 72.36C31.2956 74.0667 30.8956 75.56 30.0956 76.84C29.2956 78.0667 28.4423 79.2667 27.5356 80.44C26.6823 81.56 25.9356 82.7067 25.2956 83.88C24.6556 85.0533 24.3356 86.7333 24.3356 88.92V95.08H39.6156V100.04H25.5356Z" fill="#F27941"/>
<path d="M102.496 28.2C104.736 28.2 106.416 28.84 107.536 30.12C108.656 31.3467 109.216 32.8933 109.216 34.76V39.8C109.216 41.24 109.056 42.52 108.736 43.64C108.469 44.7067 108.122 45.6667 107.696 46.52C107.269 47.32 106.789 48.0667 106.256 48.76C105.722 49.4 105.216 50.0133 104.736 50.6C103.829 51.6667 103.189 52.6 102.816 53.4C102.496 54.1467 102.336 54.9467 102.336 55.8C102.336 57.8267 103.269 59.32 105.136 60.28C107.002 61.1867 109.749 61.64 113.376 61.64H119.616V66.6H113.376C109.749 66.6 107.002 67.08 105.136 68.04C103.269 68.9467 102.336 70.4133 102.336 72.44C102.336 73.2933 102.496 74.12 102.816 74.92C103.189 75.6667 103.829 76.5733 104.736 77.64C105.216 78.2267 105.722 78.8667 106.256 79.56C106.789 80.2 107.269 80.9467 107.696 81.8C108.122 82.6533 108.469 83.6133 108.736 84.68C109.056 85.7467 109.216 87 109.216 88.44V93.48C109.216 95.3467 108.656 96.8933 107.536 98.12C106.416 99.4 104.736 100.04 102.496 100.04H88.4156V95.08H103.696V88.92C103.696 86.7333 103.376 85.0533 102.736 83.88C102.096 82.7067 101.349 81.56 100.496 80.44C99.589 79.2667 98.7356 78.0667 97.9356 76.84C97.1356 75.56 96.7356 74.0667 96.7356 72.36C96.7356 70.12 97.509 68.3067 99.0556 66.92C100.656 65.5333 102.816 64.6533 105.536 64.28V63.96C102.816 63.5867 100.656 62.7067 99.0556 61.32C97.509 59.9333 96.7356 58.12 96.7356 55.88C96.7356 54.1733 97.1356 52.7067 97.9356 51.48C98.7356 50.2 99.589 48.9733 100.496 47.8C101.349 46.68 102.096 45.5333 102.736 44.36C103.376 43.1867 103.696 41.5067 103.696 39.32V33.16H88.4156V28.2H102.496Z" fill="#F27941"/>
</svg>
